<svg xmlns="http://www.w3.org/2000/svg" width="860" height="1280" viewBox="0 0 430 640" role="img" aria-labelledby="title desc">
  <title id="title">Safari Share button setup step</title>
  <desc id="desc">A simplified iPhone Safari screen showing the Share button highlighted.</desc>
  <defs>
    <filter id="shadow" x="-30%" y="-30%" width="160%" height="160%">
      <feDropShadow dx="0" dy="18" stdDeviation="18" flood-color="#0e120f" flood-opacity="0.16"/>
    </filter>
    <filter id="soft" x="-40%" y="-40%" width="180%" height="180%">
      <feDropShadow dx="0" dy="8" stdDeviation="14" flood-color="#2fba73" flood-opacity="0.24"/>
    </filter>
  </defs>
  <rect width="430" height="640" fill="#f8faf8"/>
  <g font-family="Inter, ui-sans-serif, system-ui, -apple-system, BlinkMacSystemFont, 'Segoe UI', sans-serif">
    <g font-weight="900" fill="#050506">
      <text x="22" y="25" font-size="15">6:29</text>
      <rect x="388" y="17" width="4" height="7" rx="2" opacity="0.42"/>
      <rect x="395" y="14" width="4" height="10" rx="2" opacity="0.58"/>
      <rect x="402" y="11" width="4" height="13" rx="2" opacity="0.76"/>
      <rect x="409" y="8" width="4" height="16" rx="2"/>
    </g>
    <g transform="translate(20 58)">
      <text x="0" y="21" font-size="17" font-weight="950" letter-spacing="-0.8" fill="#050506">Live Picks</text>
      <rect x="258" y="-1" width="132" height="28" rx="8" fill="#fff" stroke="#dce2dd"/>
      <text x="324" y="18" text-anchor="middle" font-size="10" font-weight="850" fill="#303632">Manage Account</text>
      <line x1="0" y1="40" x2="390" y2="40" stroke="#dce2dd"/>
      <text x="0" y="102" font-size="32" font-weight="950" letter-spacing="-2.2" fill="#050506">Start in Safari.</text>
      <text x="0" y="130" font-size="16" fill="#555d57">Open Live Picks in Safari. The Home Screen</text>
      <text x="0" y="151" font-size="16" fill="#555d57">install starts from the Share button.</text>
      <rect x="0" y="179" width="390" height="70" rx="10" fill="#fff" stroke="#dce2dd"/>
      <text x="14" y="202" font-size="11" font-weight="950" letter-spacing="1.4" fill="#68706a">PREMIUM FEED</text>
      <text x="14" y="229" font-size="22" font-weight="950" letter-spacing="-1" fill="#050506">Push setup required</text>
    </g>
    <g filter="url(#soft)">
      <rect x="28" y="484" width="374" height="68" rx="10" fill="#fff" stroke="#9edfc2"/>
      <text x="43" y="510" font-size="11" font-weight="950" letter-spacing="1.4" fill="#68706a">STEP 01</text>
      <text x="43" y="536" font-size="22" font-weight="950" letter-spacing="-1" fill="#050506">Tap Share.</text>
    </g>
    <g transform="translate(18 572)" filter="url(#shadow)">
      <circle cx="24" cy="24" r="24" fill="#fff" stroke="#dce2dd"/>
      <path d="M28 13 L17 24 L28 35" fill="none" stroke="#050506" stroke-width="4" stroke-linecap="round" stroke-linejoin="round"/>
      <rect x="58" y="0" width="278" height="50" rx="25" fill="#fff" stroke="#dce2dd"/>
      <text x="172" y="31" text-anchor="middle" font-size="15" font-weight="900" fill="#050506">live-picks.app</text>
      <circle cx="370" cy="24" r="24" fill="#fff" stroke="#9edfc2"/>
      <circle cx="370" cy="24" r="31" fill="none" stroke="#2fba73" stroke-opacity="0.18" stroke-width="7"/>
      <path d="M363 24 v13 h14 V24" fill="none" stroke="#050506" stroke-width="3" stroke-linecap="round" stroke-linejoin="round"/>
      <path d="M370 35 V12" fill="none" stroke="#050506" stroke-width="3" stroke-linecap="round"/>
      <path d="M363 18 l7 -7 l7 7" fill="none" stroke="#050506" stroke-width="3" stroke-linecap="round" stroke-linejoin="round"/>
    </g>
  </g>
</svg>
